<?xml version="1.0" standalone="no"?>
<!DOCTYPE svg PUBLIC "-//W3C//DTD SVG 20010904//EN"
 "http://www.w3.org/TR/2001/REC-SVG-20010904/DTD/svg10.dtd">
<svg version="1.0" xmlns="http://www.w3.org/2000/svg"
 width="164.000000pt" height="164.000000pt" viewBox="0 0 164.000000 164.000000"
 preserveAspectRatio="xMidYMid meet">
<metadata>
Created by potrace 1.11, written by Peter Selinger 2001-2013
</metadata>
<g transform="translate(0.000000,164.000000) scale(0.100000,-0.100000)"
fill="#000000" stroke="none">
<path d="M101 1592 c-19 -10 -43 -34 -53 -53 -17 -32 -18 -75 -18 -724 0 -649
1 -692 18 -724 10 -19 34 -43 53 -53 32 -17 75 -18 724 -18 650 0 692 1 725
18 63 33 70 62 70 279 l0 192 -104 -63 c-168 -102 -334 -164 -536 -201 -122
-22 -454 -31 -585 -16 -116 14 -254 40 -275 53 -12 7 -10 8 5 4 189 -47 566
-52 818 -12 118 20 272 59 362 93 91 34 241 109 282 140 31 24 33 29 33 89 l0
64 -37 1 c-21 1 -99 4 -173 8 l-135 6 -3 313 c-1 171 0 312 4 312 3 0 81 -72
172 -160 l167 -160 3 262 c3 294 -1 314 -68 350 -33 17 -74 18 -725 18 -649 0
-692 -1 -724 -18z m1024 -276 c26 -7 44 -20 51 -36 30 -64 38 -594 10 -612 -6
-4 -55 -8 -109 -8 -88 0 -98 -2 -95 -17 3 -16 17 -18 103 -19 55 -1 106 -2
113 -3 9 -1 12 -18 10 -63 l-3 -62 -90 -27 c-49 -15 -97 -28 -105 -28 -12 -1
-15 14 -17 71 -2 79 -25 153 -53 168 -26 14 -64 -19 -79 -69 -8 -30 -17 -41
-31 -41 -20 0 -20 0 0 20 24 24 26 48 3 57 -9 4 -54 2 -101 -4 -63 -8 -89 -16
-105 -32 -19 -19 -20 -23 -7 -31 12 -7 8 -10 -14 -10 -23 0 -27 3 -21 18 16
38 34 140 35 194 0 88 -7 90 -230 86 l-182 -3 41 35 c38 33 41 39 41 88 0 40
4 52 15 52 11 0 15 -12 15 -46 0 -40 2 -45 18 -39 40 17 130 24 354 24 l236 1
26 77 c20 59 23 79 13 85 -17 11 -196 10 -382 -3 -125 -9 -163 -14 -172 -27
-11 -13 -13 -13 -13 -1 0 33 31 58 87 70 49 11 60 19 86 56 36 50 81 71 183
82 106 13 324 11 369 -3z m135 -326 c0 -301 -1 -310 -20 -310 -18 0 -19 6 -13
133 6 142 -11 438 -28 468 -9 17 -6 19 26 19 l35 0 0 -310z m-990 -285 l0
-105 -30 0 -30 0 0 105 0 105 30 0 30 0 0 -105z m100 0 l0 -105 -40 0 -40 0 0
105 0 105 40 0 40 0 0 -105z m100 0 l0 -105 -40 0 -40 0 0 105 0 105 40 0 40
0 0 -105z m90 0 l0 -105 -35 0 -35 0 0 105 0 105 35 0 35 0 0 -105z m-381 -46
c1 -12 -5 -15 -24 -11 -30 5 -30 4 -8 45 l17 32 7 -25 c4 -14 7 -32 8 -41z
m771 -35 c16 -33 26 -181 15 -249 -3 -24 -14 -54 -24 -67 -16 -19 -21 -20 -35
-9 -50 42 -53 286 -3 349 14 18 30 10 47 -24z m345 -72 c0 -95 -9 -137 -25
-112 -11 17 -13 179 -4 205 15 37 29 -8 29 -93z m55 11 c0 -80 -8 -113 -21
-91 -10 15 -12 149 -3 173 13 32 24 -7 24 -82z m217 10 c-2 -16 -4 -3 -4 27 0
30 2 43 4 28 2 -16 2 -40 0 -55z m-27 47 c0 -5 -17 -13 -37 -19 -98 -24 -123
-28 -123 -22 0 3 -3 16 -6 29 -6 22 -5 22 80 22 48 0 86 -4 86 -10z m-1345
-30 c3 -5 -1 -10 -10 -10 -9 0 -13 5 -10 10 3 6 8 10 10 10 2 0 7 -4 10 -10z
m-52 -7 c-7 -2 -19 -2 -25 0 -7 3 -2 5 12 5 14 0 19 -2 13 -5z m473 -36 l232
-2 -6 -60 c-2 -33 -6 -61 -7 -63 -2 -2 -54 -5 -116 -7 -63 -2 -99 -1 -81 1 29
5 33 9 30 32 -3 23 -8 27 -41 30 -42 4 -59 -17 -38 -49 10 -17 8 -19 -21 -18
-18 0 -27 3 -20 6 6 2 12 18 12 34 0 28 -2 29 -45 29 -38 0 -45 -3 -45 -20 0
-11 1 -23 3 -27 1 -5 -22 -10 -52 -13 -53 -5 -54 -6 -68 -45 -42 -122 -134
-107 -167 28 -5 20 -12 27 -30 27 -50 0 -56 8 -56 72 l0 60 143 -7 c78 -3 246
-7 373 -8z"/>
<path d="M987 1103 c-13 -22 -37 -122 -37 -156 0 -34 2 -38 23 -35 19 3 23 12
31 66 7 51 12 62 27 62 31 0 25 48 -7 60 -30 12 -32 12 -37 3z"/>
<path d="M1142 978 c2 -51 6 -63 21 -66 16 -3 18 3 15 60 -2 51 -6 63 -21 66
-16 3 -18 -3 -15 -60z"/>
<path d="M124 486 c-10 -26 4 -46 31 -46 23 0 26 4 23 28 -3 31 -44 45 -54 18z"/>
<path d="M197 483 c-16 -15 -6 -43 17 -49 41 -10 61 -1 64 29 3 25 1 27 -36
27 -21 0 -42 -3 -45 -7z"/>
<path d="M297 484 c-4 -4 -7 -18 -7 -31 0 -22 3 -23 81 -23 l80 0 -3 28 c-3
26 -5 27 -73 30 -39 1 -74 0 -78 -4z"/>
</g>
</svg>
